<?xml version="1.0" encoding="UTF-8"?>
<svg width="512px" height="512px" viewBox="0 0 512 512" version="1.1" xmlns="http://www.w3.org/2000/svg" xmlns:xlink="http://www.w3.org/1999/xlink">
    <!-- Generator: Sketch 50.2 (55047) - http://www.bohemiancoding.com/sketch -->
    <title>Artboard Copy 4</title>
    <desc>Created with Sketch.</desc>
    <defs></defs>
    <g id="Artboard-Copy-4" stroke="none" stroke-width="1" fill="none" fill-rule="evenodd">
        <g id="Group" transform="translate(107.000000, 2.000000)">
            <path d="M155.128218,500.383495 C173.78226,500.383495 279.620394,498.762671 294.132905,476.470465 C308.645416,454.178259 282.27434,278.332698 256.082565,202.699187 C244.880399,170.350896 238.824531,159.474921 231.642903,126.953835 C215.985758,56.0524498 170.288097,4.40650407 163.855951,4.40650407 C157.423805,4.40650407 102.556521,-10.3799067 74.968411,16.1652698 C47.3803006,42.7104464 53.0565818,37.7529594 46.3163499,51.5539231 C34.3720339,76.010511 31.5246555,104.0594 31.5246555,121.329475 C31.5246555,139.665523 22.8955657,233.544715 22.8955657,259.47254 C22.8955657,285.400364 13.5230414,355.314428 7.82896904,391.064326 C0.293011266,438.378394 -4.64842934,468.592489 7.82896904,486.531409 C21.853788,506.695075 137.463395,500.383495 155.128218,500.383495 Z" id="Oval-10" fill="#000000"></path>
            <ellipse id="Oval-2" stroke="#979797" stroke-width="4.39174352" fill="#D8D8D8" opacity="0" cx="137.50549" cy="275.406504" rx="136.144049" ry="266.593496"></ellipse>
            <path d="M128.722003,268.796748 C174.806369,268.796748 204.569643,210.597405 204.569643,138.804878 C204.569643,103.548576 205.949676,66.9097625 191.321503,43.4927115 C176.162278,19.2255423 152.174984,8.81300813 128.722003,8.81300813 C101.022257,8.81300813 72.3146223,22.0911519 57.137441,54.457333 C47.064182,75.9391166 51.2103028,119.463671 51.2103028,148.104151 C51.2103028,189.57878 60.3868442,225.833116 78.174064,249.63448 C91.1764974,267.033244 109.26063,268.796748 128.722003,268.796748 Z" id="Oval" fill="#FFFFFF" opacity="0.879910714"></path>
            <path d="M117.742644,244.560976 C120.6887,245.480432 123.616529,245.94016 126.526131,245.94016 C129.435732,245.94016 132.363561,245.480432 135.309618,244.560976" id="Line-3" stroke="#979797" stroke-width="4.39174352" stroke-linecap="round"></path>
            <path d="M96.0616268,87.3232263 C97.9086201,87.3232263 102.027573,87.9929768 104.283279,85.7342599 C106.470903,83.5437171 104.283279,76.5439195 104.283279,72.3502977 C104.283279,63.8325402 103.813909,57.2845528 100.17567,57.2845528 C96.5374303,57.2845528 92.9211442,67.2519015 92.9211442,74.9632836 C92.9211442,82.6746657 92.4233873,87.3232263 96.0616268,87.3232263 Z" id="Oval-3" stroke="#82649A" stroke-width="4.39174352" fill="#82649A"></path>
            <path d="M82.6086957,180.666667 C88.6724281,180.666667 90.3714454,170.802371 90.3714454,158.634146 C90.3714454,146.465921 92.4648513,140.613568 90.3714454,136.601626 C88.400562,132.824494 75.5940271,132.913887 73.6311399,136.601626 C71.4911942,140.62201 73.6311399,154.989899 73.6311399,161.336573 C73.6311399,167.683246 76.5449632,180.666667 82.6086957,180.666667 Z" id="Oval-7" stroke="#82649A" stroke-width="4.39174352" fill="#82649A"></path>
            <path d="M177.031181,180.666667 C181.882167,180.666667 181.860384,172.360139 181.860384,160.191914 C181.860384,153.343321 186.107884,141.088034 184.153826,137.04701 C182.636015,133.908153 171.932516,133.822655 170.404967,137.04701 C168.490239,141.088622 170.404967,151.865709 170.404967,158.634146 C170.404967,170.802371 172.180195,180.666667 177.031181,180.666667 Z" id="Oval-8" stroke="#82649A" stroke-width="4.39174352" fill="#82649A"></path>
            <path d="M126.526131,230.181744 C141.49757,230.181744 155.896455,230.238626 161.84557,228.736935 C164.088792,228.170696 167.59506,222.566087 164.217283,221.903412 C157.68775,220.622402 140.113811,220.325203 126.526131,220.325203 C112.417278,220.325203 96.666131,220.540149 90.3189075,221.903412 C87.3911927,222.532229 87.9360374,228.156672 90.3189075,228.736935 C96.3633584,230.208847 111.73892,230.181744 126.526131,230.181744 Z" id="Oval-9" stroke="#000000" stroke-width="4.39174352" fill="#000000"></path>
            <path d="M168.09193,86.3668342 C169.198574,86.3668342 171.831864,86.1473382 172.639438,84.5132193 C173.601868,82.5657491 172.639438,78.8804141 172.639438,74.9105691 C172.639438,67.6096341 170.673187,61.6910569 168.247694,61.6910569 C165.822201,61.6910569 163.855951,67.6096341 163.855951,74.9105691 C163.855951,78.3113782 163.15501,82.1707455 163.855951,84.5132193 C164.659806,87.1996219 166.796243,86.3668342 168.09193,86.3668342 Z" id="Oval-4" stroke="#82649A" stroke-width="4.39174352" fill="#82649A"></path>
            <path d="M82.6086957,117.375885 C88.539816,117.375885 94.0327981,115.917586 97.029917,113.802056 C98.3225809,112.889623 98.5488207,110.036502 97.029917,109.065265 C93.9365105,107.087239 88.3022904,106.203633 82.6086957,106.203633 C77.1935048,106.203633 71.9467665,107.245685 68.8570324,109.065265 C67.103087,110.098184 67.9657327,114.624165 68.8570324,115.415556 C71.527495,117.786679 76.2438243,117.375885 82.6086957,117.375885 Z" id="Oval-5" stroke="#000000" stroke-width="4.39174352" fill="#000000"></path>
            <path d="M172.639438,114.569106 C177.266833,114.569106 182.736809,114.137489 185.523443,112.930652 C187.118731,112.239764 186.63914,108.751096 185.523443,108.147087 C182.900578,106.727141 177.7444,105.756098 172.639438,105.756098 C167.594287,105.756098 160.817764,106.189973 158.206513,107.582817 C157.051631,108.198833 157.196065,113.985331 158.206513,114.569106 C160.741144,116.033459 167.436962,114.569106 172.639438,114.569106 Z" id="Oval-6" stroke="#000000" stroke-width="4.39174352" fill="#000000"></path>
            <path d="M166.051823,125.585366 C168.247694,126.514146 170.443566,126.978535 172.639438,126.978535 C174.83531,126.978535 177.031181,126.514146 179.227053,125.585366" id="Line" stroke="#979797" stroke-width="4.39174352" fill="#BCB1C5" stroke-linecap="round"></path>
            <path d="M78.2169521,125.585366 C80.302387,126.538531 82.4982587,127.015113 84.8045674,127.015113 C87.1108761,127.015113 89.3067478,126.538531 91.3921827,125.585366" id="Line-2" stroke="#979797" stroke-width="4.39174352" stroke-linecap="round"></path>
        </g>
    </g>
</svg>